<svg width="120" height="35" viewBox="0 0 120 35" fill="none" xmlns="http://www.w3.org/2000/svg">
<path fill-rule="evenodd" clip-rule="evenodd" d="M44.8518 1.76855L45.4635 5.37143H63.0376L43.5365 30.4657L44.0541 34.0234H68.0212L67.5506 30.4657H48.4706L68.16 5.37143L67.6894 1.76855H44.8518Z" fill="#13AA57"/>
<path fill-rule="evenodd" clip-rule="evenodd" d="M87.9689 28.4257C86.7313 29.9766 85.0795 30.7509 83.0113 30.7509C80.9125 30.7509 79.2678 29.9837 78.0772 28.4495C76.8866 26.9176 76.2913 24.9155 76.2913 22.4502C76.3219 20.1109 76.9572 18.1657 78.1948 16.6149C79.4325 15.0664 81.0842 14.2897 83.1525 14.2897C85.2513 14.2897 86.896 15.0592 88.0866 16.5911C89.2772 18.1254 89.8725 20.1251 89.8725 22.5904C89.8395 24.9321 89.2066 26.8772 87.9689 28.4257M89.1454 11.9195C87.4348 10.9077 85.4395 10.4019 83.1525 10.4019C80.8325 10.4019 78.8113 10.9077 77.0889 11.9195C75.3666 12.9312 74.0348 14.3539 73.096 16.1874C72.1548 18.0232 71.6866 20.1251 71.6866 22.4977C71.6866 24.9012 72.1383 27.0197 73.0489 28.8532C73.9572 30.6867 75.2654 32.1094 76.9736 33.1235C78.6795 34.1329 80.6772 34.6411 82.9642 34.6411C85.2819 34.6411 87.3101 34.1329 89.0489 33.1235C90.7878 32.1094 92.1289 30.6867 93.0678 28.8532C94.0066 27.0197 94.4772 24.9155 94.4772 22.5429C94.4772 20.1417 94.016 18.0232 93.0913 16.1874C92.1666 14.3539 90.8513 12.9312 89.1454 11.9195" fill="#13AA57"/>
<mask id="mask0_127_171" style="mask-type:alpha" maskUnits="userSpaceOnUse" x="99" y="11" width="21" height="24">
<path fill-rule="evenodd" clip-rule="evenodd" d="M99.6941 11.0181H119.666V34.7821H99.6941V11.0181Z" fill="white"/>
</mask>
<g mask="url(#mask0_127_171)">
<path fill-rule="evenodd" clip-rule="evenodd" d="M115.155 11.0181V27.2417C113.932 28.3152 112.696 29.1939 111.442 29.8732C110.188 30.5548 109.028 30.8921 107.965 30.8921C106.555 30.8921 105.576 30.4598 105.028 29.5882C104.48 28.7189 104.205 27.4459 104.205 25.7692V11.0181H99.6941V26.1967C99.6941 28.8234 100.296 30.9087 101.504 32.4572C102.708 34.0081 104.551 34.7823 107.024 34.7823C108.529 34.7823 110.049 34.4261 111.584 33.7159C113.118 33.0034 114.496 32.0962 115.72 30.9871L116.518 34.0247H119.666V11.0181H115.155Z" fill="#13AA57"/>
</g>
<mask id="mask1_127_171" style="mask-type:alpha" maskUnits="userSpaceOnUse" x="0" y="0" width="33" height="34">
<path fill-rule="evenodd" clip-rule="evenodd" d="M0 0.375488H32.9078V33.4846H0V0.375488Z" fill="white"/>
</mask>
<g mask="url(#mask1_127_171)">
<path fill-rule="evenodd" clip-rule="evenodd" d="M16.4537 0.375C7.3666 0.375 -0.000457764 7.81113 -0.000457764 16.9834C-0.000457764 25.1154 5.79719 31.8723 13.4442 33.302C12.3219 30.5993 11.2395 27.2125 10.6748 23.213C10.2748 20.3868 10.2137 17.8313 10.3054 15.651C10.5148 16.8955 10.8795 18.4297 11.5337 20.1136C12.1831 21.7856 12.9431 23.1536 13.6231 24.2058C13.6231 22.1348 13.9054 18.9095 15.4654 15.4016C16.1972 13.7558 17.049 12.4091 17.8395 11.3523C17.249 13.4256 16.6984 16.1023 16.5713 19.2444C16.4819 21.3938 16.6066 23.3175 16.816 24.9491C17.5054 24.3625 18.3595 23.5123 19.1501 22.3461C20.209 20.781 20.7266 19.2847 20.9925 18.254C21.0231 20.5387 20.8701 23.3721 20.256 26.5618C19.7407 29.2241 19.0184 31.5445 18.2725 33.4849C26.5031 32.5705 32.9078 25.5334 32.9078 16.9834C32.9078 7.81113 25.5407 0.375 16.4537 0.375" fill="#13AA57"/>
</g>
</svg>
